<?xml version="1.0" ?><svg style="enable-background:new 0 0 48 48;" version="1.1" viewBox="0 0 48 48" xml:space="preserve" xmlns="http://www.w3.org/2000/svg" xmlns:xlink="http://www.w3.org/1999/xlink"><g id="Icons"><g><g><path d="M18.581,13.32285h-2.6925v-2.6668c0-0.4141,0.3357-0.7498,0.7498-0.7498h1.1929     c0.4141,0,0.7498,0.3357,0.7498,0.7498V13.32285z" style="fill:#4AA0EC;"/><path d="M32.1115,13.32285H29.419v-2.6668c0-0.4141,0.3357-0.7498,0.7498-0.7498h1.1929     c0.4141,0,0.7498,0.3357,0.7498,0.7498V13.32285z" style="fill:#4AA0EC;"/></g><path d="M33.1127,38.09375H14.8873c-1.9017,0-3.4433-1.5416-3.4433-3.4432v-18.2255    c0-1.9016,1.5416-3.4432,3.4433-3.4432h18.2254c1.9017,0,3.4433,1.5416,3.4433,3.4432v18.2255    C36.556,36.55215,35.0144,38.09375,33.1127,38.09375z" style="fill:#F2F2F2;"/><path d="M14.8872,36.59375c-1.0718,0-1.9434-0.8716-1.9434-1.9429v-18.2256    c0-1.0718,0.8716-1.9434,1.9434-1.9434h18.2256c1.0718,0,1.9434,0.8716,1.9434,1.9434v18.2256    c0,1.0713-0.8716,1.9429-1.9434,1.9429H14.8872z" style="fill:#4AA0EC;"/><g><circle cx="17.801" cy="20.24695" r="1.1094" style="fill:#87C5F4;"/><circle cx="24" cy="20.24695" r="1.1094" style="fill:#87C5F4;"/><circle cx="30.199" cy="20.24695" r="1.1094" style="fill:#87C5F4;"/><circle cx="17.801" cy="25.53778" r="1.10938" style="fill:#87C5F4;"/><circle cx="24" cy="25.53778" r="1.10938" style="fill:#87C5F4;"/><circle cx="30.199" cy="25.53778" r="1.10938" style="fill:#87C5F4;"/><circle cx="17.801" cy="30.82865" r="1.1094" style="fill:#87C5F4;"/><circle cx="24" cy="30.82865" r="1.1094" style="fill:#87C5F4;"/></g></g></g></svg>